<svg width="675" height="208" viewBox="0 0 675 208" fill="none" xmlns="http://www.w3.org/2000/svg">
  <path d="M15 168V88C15 48.2355 47.2355 16 87 16H169V96C169 135.765 136.765 168 97 168H45V190L15 168Z" fill="#00C800"/>
  <path d="M45 124V88C45 64.2518 64.2518 45 88 45H140V81C140 104.748 120.748 124 97 124H45Z" fill="#050505"/>
  <path d="M224 58H284C296.703 58 306.333 61.1036 312.889 67.3108C319.63 73.3341 323 82.2361 323 94.0169C323 105.798 319.63 114.792 312.889 121C306.333 127.023 296.703 130.034 284 130.034H243.176V147H224V58ZM243.176 114.357H282.658C289.214 114.357 294.034 112.711 297.116 109.42C300.383 106.128 302.016 101.56 302.016 95.7143C302.016 89.8686 300.383 85.3928 297.116 82.2857C294.034 79.1786 289.214 77.625 282.658 77.625H243.176V114.357Z" fill="white"/>
  <path d="M384.155 58H400.845L449 147H428.551L418.732 128.661H366.268L356.449 147H336L384.155 58ZM410.551 113.214L392.5 79.6667L374.449 113.214H410.551Z" fill="white"/>
  <path d="M462 58H505.455C521.049 58 533.747 62.1964 543.548 70.5893C553.516 78.9821 558.5 89.8214 558.5 103.107C558.5 116.393 553.516 127.232 543.548 135.625C533.747 143.875 521.049 148 505.455 148H462V58ZM504.292 131.607C514.259 131.607 522.235 129.018 528.219 123.839C534.203 118.661 537.195 111.75 537.195 103.107C537.195 94.4643 534.203 87.5536 528.219 82.375C522.235 77.1964 514.259 74.6071 504.292 74.6071H481.109V131.607H504.292Z" fill="white"/>
  <path d="M604.155 58H620.845L669 147H648.551L638.732 128.661H586.268L576.449 147H556L604.155 58ZM630.551 113.214L612.5 79.6667L594.449 113.214H630.551Z" fill="white"/>
  <path d="M493 169H504.824C508.275 169 510.891 169.854 512.672 171.561C514.503 173.218 515.418 175.665 515.418 178.903C515.418 182.141 514.503 184.613 512.672 186.32C510.891 187.977 508.275 188.806 504.824 188.806H498.199V197H493V169ZM498.199 184.258H504.459C506.24 184.258 507.549 183.805 508.386 182.899C509.273 181.994 509.716 180.737 509.716 179.129C509.716 177.521 509.273 176.289 508.386 175.434C507.549 174.58 506.24 174.153 504.459 174.153H498.199V184.258Z" fill="white"/>
  <path d="M520.146 176.109H525.01V179.468C526.052 176.947 528.015 175.687 530.899 175.687C531.494 175.687 532.026 175.737 532.497 175.837V180.864C531.754 180.714 531.085 180.638 530.49 180.638C528.833 180.638 527.519 181.129 526.548 182.112C525.577 183.094 525.091 184.492 525.091 186.305V197H520.146V176.109Z" fill="white"/>
  <path d="M545.118 197.452C542.928 197.452 540.985 197.013 539.289 196.136C537.594 195.258 536.272 194.005 535.324 192.377C534.376 190.749 533.902 188.822 533.902 186.595C533.902 184.367 534.376 182.44 535.324 180.812C536.272 179.184 537.594 177.931 539.289 177.054C540.985 176.176 542.928 175.737 545.118 175.737C547.308 175.737 549.251 176.176 550.947 177.054C552.642 177.931 553.964 179.184 554.912 180.812C555.86 182.44 556.334 184.367 556.334 186.595C556.334 188.822 555.86 190.749 554.912 192.377C553.964 194.005 552.642 195.258 550.947 196.136C549.251 197.013 547.308 197.452 545.118 197.452ZM545.118 193.027C546.996 193.027 548.451 192.466 549.484 191.345C550.517 190.224 551.034 188.64 551.034 186.595C551.034 184.549 550.517 182.966 549.484 181.845C548.451 180.724 546.996 180.163 545.118 180.163C543.24 180.163 541.785 180.724 540.752 181.845C539.719 182.966 539.203 184.549 539.203 186.595C539.203 188.64 539.719 190.224 540.752 191.345C541.785 192.466 543.24 193.027 545.118 193.027Z" fill="white"/>
  <path d="M569.616 197.452C567.841 197.452 566.257 197.013 564.866 196.136C563.474 195.258 562.383 194.005 561.592 192.377C560.801 190.749 560.405 188.835 560.405 186.633C560.405 184.405 560.801 182.466 561.592 180.812C562.383 179.159 563.474 177.893 564.866 177.016C566.257 176.138 567.841 175.699 569.616 175.699C572.031 175.699 573.967 176.714 575.423 178.746V169H580.369V197H575.678V194.018C574.223 196.307 572.202 197.452 569.616 197.452ZM570.56 193.102C572.083 193.102 573.272 192.54 574.129 191.419C574.986 190.298 575.415 188.696 575.415 186.614C575.415 184.506 574.986 182.879 574.129 181.731C573.272 180.584 572.083 180.01 570.56 180.01C569.037 180.01 567.835 180.584 566.952 181.731C566.095 182.879 565.667 184.506 565.667 186.614C565.667 188.696 566.095 190.298 566.952 191.419C567.835 192.54 569.037 193.102 570.56 193.102Z" fill="white"/>
  <path d="M594.633 197.452C591.923 197.452 589.856 196.786 588.433 195.454C587.01 194.122 586.299 192.188 586.299 189.651V176.109H591.245V189.235C591.245 191.797 592.478 193.078 594.945 193.078C596.342 193.078 597.453 192.605 598.278 191.66C599.103 190.715 599.516 189.424 599.516 187.787V176.109H604.462V197H599.771V194.018C598.418 196.307 596.705 197.452 594.633 197.452Z" fill="white"/>
  <path d="M620.188 197.452C617.946 197.452 615.959 197.013 614.225 196.136C612.491 195.258 611.145 194.005 610.184 192.377C609.224 190.749 608.744 188.835 608.744 186.633C608.744 184.405 609.224 182.466 610.184 180.812C611.145 179.159 612.491 177.893 614.225 177.016C615.959 176.138 617.946 175.699 620.188 175.699C621.592 175.699 622.95 175.9 624.263 176.302C625.576 176.704 626.641 177.243 627.459 177.919L626.013 181.731C624.094 180.584 622.263 180.01 620.518 180.01C618.472 180.01 616.869 180.584 615.71 181.731C614.575 182.879 614.008 184.506 614.008 186.614C614.008 188.696 614.575 190.298 615.71 191.419C616.869 192.54 618.472 193.102 620.518 193.102C622.263 193.102 624.094 192.528 626.013 191.381L627.459 195.193C626.641 195.869 625.576 196.408 624.263 196.81C622.95 197.238 621.592 197.452 620.188 197.452Z" fill="white"/>
  <path d="M631.711 176.109H636.657V197H631.711V176.109ZM631.456 167.463H636.912V172.49H631.456V167.463Z" fill="white"/>
  <path d="M652.39 197.452C650.2 197.452 648.257 197.013 646.561 196.136C644.866 195.258 643.544 194.005 642.596 192.377C641.648 190.749 641.174 188.822 641.174 186.595C641.174 184.367 641.648 182.44 642.596 180.812C643.544 179.184 644.866 177.931 646.561 177.054C648.257 176.176 650.2 175.737 652.39 175.737C654.58 175.737 656.523 176.176 658.219 177.054C659.914 177.931 661.236 179.184 662.184 180.812C663.132 182.44 663.606 184.367 663.606 186.595C663.606 188.822 663.132 190.749 662.184 192.377C661.236 194.005 659.914 195.258 658.219 196.136C656.523 197.013 654.58 197.452 652.39 197.452ZM652.39 193.027C654.268 193.027 655.723 192.466 656.756 191.345C657.789 190.224 658.306 188.64 658.306 186.595C658.306 184.549 657.789 182.966 656.756 181.845C655.723 180.724 654.268 180.163 652.39 180.163C650.512 180.163 649.057 180.724 648.024 181.845C646.991 182.966 646.475 184.549 646.475 186.595C646.475 188.64 646.991 190.224 648.024 191.345C649.057 192.466 650.512 193.027 652.39 193.027Z" fill="white"/>
</svg>
